<?xml version="1.0" encoding="utf-8"?>
<!-- Generator: Adobe Illustrator 16.0.0, SVG Export Plug-In . SVG Version: 6.00 Build 0)  -->
<!DOCTYPE svg PUBLIC "-//W3C//DTD SVG 1.1//EN" "http://www.w3.org/Graphics/SVG/1.1/DTD/svg11.dtd">
<svg version="1.1" id="Layer_1" xmlns="http://www.w3.org/2000/svg" xmlns:xlink="http://www.w3.org/1999/xlink" x="0px" y="0px"
	 width="841.89px" height="595.28px" viewBox="0 0 841.89 595.28" enable-background="new 0 0 841.89 595.28" xml:space="preserve">
<g>
	<text transform="matrix(1 0 0 1 31.354 365.2266)" fill="#EC1E24" font-family="'MicrosoftNewTaiLue-Bold'" font-size="146.4856">academi</text>
	<g>
		<polygon fill="#EC1E24" points="748.873,309.368 748.834,309.599 745.223,303.778 713.008,342.373 727.893,366.753 810.535,409.3 
					"/>
		<polygon fill="#EC1E24" points="682.466,287.797 738.4,292.784 708.198,244.11 707.309,242.678 707.592,242.467 691.975,217.156 
			610.373,174.264 679.528,287.535 		"/>
		<polygon fill="#EC1E24" points="810.014,174.264 749.34,174.264 709.58,241.765 745.927,283.067 		"/>
		<polygon fill="#EC1E24" points="738.613,295.411 687.138,299.998 674.621,301.114 610.896,409.3 625.436,409.3 671.574,409.3 
			711.328,341.808 710.789,341.423 711.604,340.074 		"/>
	</g>
</g>
</svg>
